<?xml version="1.0" encoding="utf-8"?>
<!-- Generator: Adobe Illustrator 23.0.3, SVG Export Plug-In . SVG Version: 6.00 Build 0)  -->
<svg version="1.1" id="Layer_1" xmlns="http://www.w3.org/2000/svg" xmlns:xlink="http://www.w3.org/1999/xlink" x="0px" y="0px"
	 viewBox="0 0 841 768" style="enable-background:new 0 0 841 768;" xml:space="preserve">
<style type="text/css">
	.st0{fill:#FFFFFF;}
</style>
<g>
	<path class="st0" d="M144.2,768c-1.5-0.5-2.9-1.2-4.4-1.5c-22-4.9-36-23.6-35.9-44.8c0.4-76.4,0.1-152.9,0.1-229.3
		c0-7.8,0.2-15.6-0.2-23.3c-0.6-12.4,4.1-22.3,13-30.4c41.4-38.1,82.8-76.2,124.2-114.3c54.2-49.9,108.3-99.9,162.6-149.7
		c12.5-11.5,22.3-11.4,34.8,0.1c39.6,36.4,79.1,72.9,118.7,109.2c51.2,47,102.6,94,153.9,141c4.9,4.5,9.8,9,14.5,13.6
		c8.1,7.8,12.3,17.2,12.3,28.7c-0.1,85.6,0,171.2-0.1,256.8c0,19.9-15.6,37.5-36.8,42.3c-2,0.5-3.9,1.1-5.8,1.7
		c-54.5,0-109,0-163.5,0c-15.2-4.9-19.7-15.4-19.6-31c0.6-67.5,0.2-135,0.2-202.5c0-19.8-10.1-30.3-29.8-30.4
		c-41.4-0.1-82.8-0.1-124.2,0.1c-4.8,0-10.1,1.5-14.4,3.6c-10.2,5.1-14.1,14.2-14.1,25.5c0.1,67.3-0.4,134.5,0.2,201.8
		c0.1,15.9-4.3,27.1-19.6,32.8C255.1,768,199.6,768,144.2,768z"/>
	<path class="st0" d="M0,372.4c4-18.1,15.9-30.3,29.5-42.2c51.1-44.8,101.4-90.5,151.9-136C246,135.9,310.5,77.6,375.1,19.3
		c28.7-25.9,61.9-25.6,90.5,0.2c47.9,43.2,96.1,86.1,144.2,129.2c64.4,57.8,128.7,115.6,193,173.5c8,7.2,16.5,13.9,23.9,21.7
		c17.2,18.1,19.3,43.1,6,63.8c-15.7,24.5-47.2,30.5-69.8,12.1c-15.7-12.9-30.2-27.3-45.2-41c-55.7-50.7-111.4-101.3-167-152
		c-33.5-30.5-66.8-61.2-100.2-91.8c-2-1.9-4.1-3.7-6.2-5.4c-15.9-13.5-31.9-13.4-47.4,0.5c-15.2,13.6-30.1,27.5-45.1,41.2
		c-82.8,75.6-165.7,151.1-248.5,226.7c-6.4,5.9-12.8,11.8-19,17.9C56.1,443.4,11.5,429,1.5,391.3c-0.3-1.3-1-2.5-1.5-3.8
		C0,382.4,0,377.4,0,372.4z"/>
</g>
</svg>
